<svg xmlns="http://www.w3.org/2000/svg" version="1.1" xmlns:xlink="http://www.w3.org/1999/xlink" xmlns:svgjs="http://svgjs.com/svgjs" id="Pattern1249SvgRootPreview" width="100%" height="100%"><defs><pattern x="0" y="0" width="1.0243055555555556" height="1.0243055555555556" patternUnits="userSpaceOnUse" id="Pattern1249Layer1" viewBox="0 0 1.0243055555555556 1.0243055555555556" preserveAspectRatio="xMidYMid slice"><g id="PatternRootContent1" transform="scale(1.0243055555555556) rotate(0)"><g id="Pattern1249Layer1background"><rect width="1" height="1" id="Pattern1249Background1" class="color_1 fill_color_1" fill="#2f3b40"></rect></g></g></pattern><pattern x="0" y="0" width="36.875" height="36.875" patternUnits="userSpaceOnUse" id="Pattern1249Layer2" patternTransform="matrix(0.8,0,0,0.8,0,0)" viewBox="0 0 36.875 36.875" preserveAspectRatio="xMidYMid slice"><g id="PatternRootContent2" transform="scale(1.0243055555555556) rotate(0)"><g id="Pattern1249Layer2Element1"><use xlink:href="#Pattern1249Element1" x="12" y="-33" transform="translate(28, -17) scale(1) translate(-28, 17) rotate(135, 36, -9)"></use><use xlink:href="#Pattern1249Element1" x="-24" y="-33" transform="translate(-8, -17) scale(1) translate(8, 17) rotate(135, 0, -9)"></use><use xlink:href="#Pattern1249Element1" x="-6" y="-15" transform="translate(10, 1) scale(1) translate(-10, -1) rotate(135, 18, 9)"></use><use xlink:href="#Pattern1249Element1" x="-42" y="-15" transform="translate(-26, 1) scale(1) translate(26, -1) rotate(135, -18, 9)"></use><use xlink:href="#Pattern1249Element1" x="30" y="-15" transform="translate(46, 1) scale(1) translate(-46, -1) rotate(135, 54, 9)"></use><use xlink:href="#Pattern1249Element1" x="12" y="3" transform="translate(28, 19) scale(1) translate(-28, -19) rotate(135, 36, 27)"></use><use xlink:href="#Pattern1249Element1" x="-24" y="3" transform="translate(-8, 19) scale(1) translate(8, -19) rotate(135, 0, 27)"></use><use xlink:href="#Pattern1249Element1" x="-6" y="21" transform="translate(10, 37) scale(1) translate(-10, -37) rotate(135, 18, 45)"></use><use xlink:href="#Pattern1249Element1" x="-6" y="21" transform="translate(10, 37) scale(1) translate(-10, -37) rotate(135, 18, 45)"></use></g></g></pattern><symbol id="Pattern1249Element1"><path d="M8 18h32v4H8zm0 8h20v4H8z" class="color_2 fill_color_2" fill="#869aa6"></path></symbol></defs><rect width="100%" height="100%" id="Pattern1249RctLayer1" fill="url(#Pattern1249Layer1)"></rect><rect width="100%" height="100%" id="Pattern1249RctLayer2" fill="url(#Pattern1249Layer2)"></rect></svg>